{
DisplayStrings = (
W
);
date = "2013-11-15 14:07:43 +0000";
designer = "Shinji Pons";
designerURL = www.shinjipons.com;
familyName = "Modulo 04";
fontMaster = (
{
alignmentZones = (
"{1280, 10}",
"{0, -10}"
);
ascender = 1280;
capHeight = 1280;
customParameters = (
{
name = familyName;
value = "Modulo 04";
}
);
descender = 0;
guideLines = (
{
position = "{1520, 620}";
},
{
angle = 90;
position = "{740, -124}";
},
{
angle = 90;
position = "{700, -117}";
},
{
position = "{1533, 660}";
},
{
angle = 90;
position = "{80, -86}";
},
{
angle = 90;
position = "{1320, -69}";
},
{
position = "{1520, 1240}";
},
{
position = "{1510, 40}";
},
{
angle = 90;
position = "{1360, -75}";
},
{
angle = 90;
position = "{120, -85}";
},
{
angle = 90;
position = "{100, -86}";
},
{
position = "{1510, 20}";
}
);
horizontalStems = (
40
);
id = "940E2F63-624A-4C3D-A909-721782B4CF41";
verticalStems = (
40
);
weightValue = 4;
widthValue = 128;
xHeight = 1280;
}
);
glyphs = (
{
glyphname = A;
lastChange = "2014-01-05 01:19:16 +0000";
layers = (
{
layerId = "940E2F63-624A-4C3D-A909-721782B4CF41";
name = Regular;
paths = (
{
closed = 1;
nodes = (
"100 1280 LINE SMOOTH",
"88.95 1280 OFFCURVE",
"80 1271.05 OFFCURVE",
"80 1260 CURVE SMOOTH",
"80 1248.95 OFFCURVE",
"88.95 1240 OFFCURVE",
"100 1240 CURVE SMOOTH",
"1320 1240 LINE",
"1320 40 LINE",
"120 40 LINE",
"120 620 LINE",
"720 620 LINE SMOOTH",
"731.05 620 OFFCURVE",
"740 628.95 OFFCURVE",
"740 640 CURVE SMOOTH",
"740 651.05 OFFCURVE",
"731.05 660 OFFCURVE",
"720 660 CURVE SMOOTH",
"100 660 LINE SMOOTH",
"88.95 660 OFFCURVE",
"80 651.05 OFFCURVE",
"80 640 CURVE SMOOTH",
"80 20 LINE SMOOTH",
"80 8.95 OFFCURVE",
"88.95 0 OFFCURVE",
"100 0 CURVE SMOOTH",
"1340 0 LINE SMOOTH",
"1351.05 0 OFFCURVE",
"1360 8.95 OFFCURVE",
"1359.99 20 CURVE SMOOTH",
"1359.99 1260.45 LINE",
"1359.99 1271.29 OFFCURVE",
"1350.9 1280 OFFCURVE",
"1340 1280 CURVE SMOOTH"
);
}
);
width = 1440;
}
);
unicode = 0041;
},
{
glyphname = B;
lastChange = "2014-01-05 01:19:16 +0000";
layers = (
{
layerId = "940E2F63-624A-4C3D-A909-721782B4CF41";
name = Regular;
paths = (
{
closed = 1;
nodes = (
"100 1280 LINE SMOOTH",
"88.95 1280 OFFCURVE",
"80 1271.05 OFFCURVE",
"80 1260 CURVE SMOOTH",
"80 20 LINE SMOOTH",
"80 8.95 OFFCURVE",
"88.95 0 OFFCURVE",
"100 0 CURVE SMOOTH",
"111.05 0 OFFCURVE",
"120 8.95 OFFCURVE",
"120 20 CURVE SMOOTH",
"120 1240 LINE",
"1320 1240 LINE",
"1320 660 LINE",
"720 660 LINE SMOOTH",
"708.95 660 OFFCURVE",
"700 651.05 OFFCURVE",
"700 640 CURVE SMOOTH",
"700 628.95 OFFCURVE",
"708.95 620 OFFCURVE",
"720 620 CURVE SMOOTH",
"1320 620 LINE",
"1320 40 LINE",
"720 40 LINE SMOOTH",
"708.95 40 OFFCURVE",
"700 31.05 OFFCURVE",
"700 20 CURVE SMOOTH",
"700 8.95 OFFCURVE",
"708.95 0 OFFCURVE",
"720 0 CURVE SMOOTH",
"1340 0 LINE SMOOTH",
"1351.05 0 OFFCURVE",
"1360 8.95 OFFCURVE",
"1360 20 CURVE SMOOTH",
"1360 1260 LINE SMOOTH",
"1360 1271.05 OFFCURVE",
"1351.05 1280 OFFCURVE",
"1340 1280 CURVE SMOOTH"
);
}
);
width = 1440;
}
);
unicode = 0042;
},
{
glyphname = C;
lastChange = "2014-01-05 01:19:16 +0000";
layers = (
{
layerId = "940E2F63-624A-4C3D-A909-721782B4CF41";
name = Regular;
paths = (
{
closed = 1;
nodes = (
"100 1280 LINE SMOOTH",
"88.95 1280 OFFCURVE",
"80 1271.05 OFFCURVE",
"80 1260 CURVE SMOOTH",
"80 19.97 LINE SMOOTH",
"80 8.933 OFFCURVE",
"88.96 0 OFFCURVE",
"100 0 CURVE SMOOTH",
"1340 0 LINE SMOOTH",
"1351.05 0 OFFCURVE",
"1360 8.95 OFFCURVE",
"1360 20 CURVE SMOOTH",
"1360 31.05 OFFCURVE",
"1351.05 40 OFFCURVE",
"1340 40 CURVE SMOOTH",
"120 40 LINE",
"120 1240 LINE",
"1340 1240 LINE SMOOTH",
"1351.05 1240 OFFCURVE",
"1360 1248.95 OFFCURVE",
"1360 1260 CURVE SMOOTH",
"1360 1271.05 OFFCURVE",
"1351.05 1280 OFFCURVE",
"1340 1280 CURVE SMOOTH"
);
}
);
width = 1440;
}
);
unicode = 0043;
},
{
glyphname = D;
lastChange = "2014-01-05 01:19:16 +0000";
layers = (
{
layerId = "940E2F63-624A-4C3D-A909-721782B4CF41";
name = Regular;
paths = (
{
closed = 1;
nodes = (
"100 1280 LINE SMOOTH",
"88.95 1280 OFFCURVE",
"80 1271.05 OFFCURVE",
"80 1260 CURVE SMOOTH",
"80 1248.95 OFFCURVE",
"88.95 1240 OFFCURVE",
"100 1240 CURVE SMOOTH",
"1320 1240 LINE",
"1320 40 LINE",
"120 40 LINE",
"120 640 LINE SMOOTH",
"120 651.05 OFFCURVE",
"111.05 660 OFFCURVE",
"100 660 CURVE SMOOTH",
"88.95 660 OFFCURVE",
"80 651.05 OFFCURVE",
"80 640 CURVE SMOOTH",
"80 20 LINE SMOOTH",
"80 8.95 OFFCURVE",
"88.95 0 OFFCURVE",
"100 0 CURVE SMOOTH",
"1340 0 LINE SMOOTH",
"1351.05 0 OFFCURVE",
"1360 8.95 OFFCURVE",
"1360 20 CURVE SMOOTH",
"1360 1260 LINE SMOOTH",
"1360 1271.05 OFFCURVE",
"1351.05 1280 OFFCURVE",
"1340 1280 CURVE SMOOTH"
);
}
);
width = 1440;
}
);
unicode = 0044;
},
{
glyphname = E;
lastChange = "2014-01-05 01:19:16 +0000";
layers = (
{
layerId = "940E2F63-624A-4C3D-A909-721782B4CF41";
name = Regular;
paths = (
{
closed = 1;
nodes = (
"720 1280 LINE SMOOTH",
"708.95 1280 OFFCURVE",
"700 1271.05 OFFCURVE",
"700 1260 CURVE SMOOTH",
"700 1248.95 OFFCURVE",
"708.95 1240 OFFCURVE",
"720 1240 CURVE SMOOTH",
"1320 1240 LINE",
"1320 660 LINE",
"120 660 LINE",
"120 1260 LINE SMOOTH",
"120 1271.05 OFFCURVE",
"111.05 1280 OFFCURVE",
"100 1280 CURVE SMOOTH",
"88.95 1280 OFFCURVE",
"80 1271.05 OFFCURVE",
"80 1260 CURVE SMOOTH",
"80 20 LINE SMOOTH",
"80 8.95 OFFCURVE",
"88.95 0 OFFCURVE",
"100 0 CURVE SMOOTH",
"1340 0 LINE SMOOTH",
"1351.05 0 OFFCURVE",
"1360 8.95 OFFCURVE",
"1360 20 CURVE SMOOTH",
"1360 31.05 OFFCURVE",
"1351.05 40 OFFCURVE",
"1340 40 CURVE SMOOTH",
"120 40 LINE",
"120 620 LINE",
"1340 620 LINE SMOOTH",
"1351.05 620 OFFCURVE",
"1360 628.95 OFFCURVE",
"1360 640 CURVE SMOOTH",
"1360 1260 LINE SMOOTH",
"1360 1271.05 OFFCURVE",
"1351.05 1280 OFFCURVE",
"1340 1280 CURVE SMOOTH"
);
}
);
width = 1440;
}
);
unicode = 0045;
},
{
glyphname = F;
lastChange = "2014-01-05 01:19:16 +0000";
layers = (
{
layerId = "940E2F63-624A-4C3D-A909-721782B4CF41";
name = Regular;
paths = (
{
closed = 1;
nodes = (
"100 1280 LINE SMOOTH",
"88.95 1280 OFFCURVE",
"80 1271.05 OFFCURVE",
"80 1260 CURVE SMOOTH",
"80 20 LINE SMOOTH",
"80 8.95 OFFCURVE",
"88.95 0 OFFCURVE",
"100 0 CURVE SMOOTH",
"111.05 0 OFFCURVE",
"120 8.95 OFFCURVE",
"120 20 CURVE SMOOTH",
"120 620 LINE",
"1340 620 LINE SMOOTH",
"1351.05 620 OFFCURVE",
"1360 628.95 OFFCURVE",
"1360 640 CURVE SMOOTH",
"1360 651.05 OFFCURVE",
"1351.05 660 OFFCURVE",
"1340 660 CURVE SMOOTH",
"120 660 LINE",
"120 1240 LINE",
"1340 1240 LINE SMOOTH",
"1351.05 1240 OFFCURVE",
"1360 1248.95 OFFCURVE",
"1360 1260 CURVE SMOOTH",
"1360 1271.05 OFFCURVE",
"1351.05 1280 OFFCURVE",
"1340 1280 CURVE SMOOTH"
);
}
);
width = 1440;
}
);
unicode = 0046;
},
{
glyphname = H;
lastChange = "2014-01-05 01:19:16 +0000";
layers = (
{
layerId = "940E2F63-624A-4C3D-A909-721782B4CF41";
name = Regular;
paths = (
{
closed = 1;
nodes = (
"1328.95 1280 OFFCURVE",
"1320 1271.05 OFFCURVE",
"1320 1260 CURVE SMOOTH",
"1320 660 LINE",
"120 660 LINE",
"120 1260 LINE SMOOTH",
"120 1271.05 OFFCURVE",
"111.05 1280 OFFCURVE",
"100 1280 CURVE SMOOTH",
"88.95 1280 OFFCURVE",
"80 1271.05 OFFCURVE",
"80 1260 CURVE SMOOTH",
"80 20 LINE SMOOTH",
"80 8.95 OFFCURVE",
"88.95 0 OFFCURVE",
"100 0 CURVE SMOOTH",
"111.05 0 OFFCURVE",
"120 8.95 OFFCURVE",
"120 20 CURVE SMOOTH",
"120 620 LINE",
"1320 620 LINE",
"1320 20 LINE SMOOTH",
"1320 8.95 OFFCURVE",
"1328.95 0 OFFCURVE",
"1340 0 CURVE SMOOTH",
"1351.05 0 OFFCURVE",
"1360 8.95 OFFCURVE",
"1360 20 CURVE SMOOTH",
"1360 1260 LINE SMOOTH",
"1360 1271.05 OFFCURVE",
"1351.05 1280 OFFCURVE",
"1340 1280 CURVE SMOOTH"
);
}
);
width = 1440;
}
);
unicode = 0048;
},
{
glyphname = J;
lastChange = "2014-01-05 01:19:16 +0000";
layers = (
{
layerId = "940E2F63-624A-4C3D-A909-721782B4CF41";
name = Regular;
paths = (
{
closed = 1;
nodes = (
"720 1280 LINE SMOOTH",
"708.95 1280 OFFCURVE",
"700 1271.05 OFFCURVE",
"700 1260 CURVE SMOOTH",
"700 1248.95 OFFCURVE",
"708.95 1240 OFFCURVE",
"720 1240 CURVE SMOOTH",
"1320 1240 LINE",
"1320 40 LINE",
"100 40 LINE SMOOTH",
"88.95 40 OFFCURVE",
"80 31.05 OFFCURVE",
"80 20 CURVE SMOOTH",
"80 8.95 OFFCURVE",
"88.95 0 OFFCURVE",
"100 0 CURVE SMOOTH",
"1340 0 LINE SMOOTH",
"1351.05 0 OFFCURVE",
"1360 8.95 OFFCURVE",
"1360 20 CURVE SMOOTH",
"1360 1260 LINE SMOOTH",
"1360 1271.05 OFFCURVE",
"1351.05 1280 OFFCURVE",
"1340 1280 CURVE SMOOTH"
);
}
);
width = 1440;
}
);
unicode = 004A;
},
{
glyphname = K;
lastChange = "2014-01-05 01:19:16 +0000";
layers = (
{
layerId = "940E2F63-624A-4C3D-A909-721782B4CF41";
name = Regular;
paths = (
{
closed = 1;
nodes = (
"720 1280 LINE SMOOTH",
"708.95 1280 OFFCURVE",
"700 1271.05 OFFCURVE",
"700 1260 CURVE SMOOTH",
"700 660 LINE",
"120 660 LINE",
"120 1260 LINE SMOOTH",
"120 1271.05 OFFCURVE",
"111.05 1280 OFFCURVE",
"100 1280 CURVE SMOOTH",
"88.95 1280 OFFCURVE",
"80 1271.05 OFFCURVE",
"80 1260 CURVE SMOOTH",
"80 20 LINE SMOOTH",
"80 8.95 OFFCURVE",
"88.95 0 OFFCURVE",
"100 0 CURVE SMOOTH",
"111.05 0 OFFCURVE",
"120 8.95 OFFCURVE",
"120 20 CURVE SMOOTH",
"120 620 LINE",
"1320 620 LINE",
"1320 20 LINE SMOOTH",
"1320 8.95 OFFCURVE",
"1328.95 0 OFFCURVE",
"1340 0 CURVE SMOOTH",
"1351.05 0 OFFCURVE",
"1360 8.95 OFFCURVE",
"1360 20 CURVE SMOOTH",
"1360 640 LINE SMOOTH",
"1360 651.05 OFFCURVE",
"1351.05 660 OFFCURVE",
"1340 660 CURVE SMOOTH",
"740 660 LINE",
"740 1240 LINE",
"1340 1240 LINE SMOOTH",
"1351.05 1240 OFFCURVE",
"1360 1248.95 OFFCURVE",
"1360 1260 CURVE SMOOTH",
"1360 1271.05 OFFCURVE",
"1351.05 1280 OFFCURVE",
"1340 1280 CURVE SMOOTH"
);
}
);
width = 1440;
}
);
unicode = 004B;
},
{
glyphname = L;
lastChange = "2014-01-11 15:25:57 +0000";
layers = (
{
layerId = "940E2F63-624A-4C3D-A909-721782B4CF41";
name = Regular;
paths = (
{
closed = 1;
nodes = (
"120 40 LINE",
"120 1260 LINE SMOOTH",
"120 1271.05 OFFCURVE",
"111.05 1280 OFFCURVE",
"100 1280 CURVE SMOOTH",
"88.95 1280 OFFCURVE",
"80 1271.05 OFFCURVE",
"80 1260 CURVE SMOOTH",
"80 20 LINE SMOOTH",
"80 8.954 OFFCURVE",
"88.954 0 OFFCURVE",
"100 0 CURVE SMOOTH",
"1340 0 LINE SMOOTH",
"1351.05 0 OFFCURVE",
"1360 8.95 OFFCURVE",
"1360 20 CURVE SMOOTH",
"1360 31.05 OFFCURVE",
"1351.05 40 OFFCURVE",
"1340 40 CURVE SMOOTH"
);
}
);
width = 1440;
}
);
unicode = 004C;
},
{
glyphname = M;
lastChange = "2014-01-05 01:19:16 +0000";
layers = (
{
layerId = "940E2F63-624A-4C3D-A909-721782B4CF41";
name = Regular;
paths = (
{
closed = 1;
nodes = (
"100 1280 LINE SMOOTH",
"88.95 1280 OFFCURVE",
"80 1271.05 OFFCURVE",
"80 1260 CURVE SMOOTH",
"80 20 LINE SMOOTH",
"80 8.95 OFFCURVE",
"88.95 0 OFFCURVE",
"100 0 CURVE SMOOTH",
"111.05 0 OFFCURVE",
"120 8.95 OFFCURVE",
"120 20 CURVE SMOOTH",
"120 1240 LINE",
"700 1240 LINE",
"700 20 LINE SMOOTH",
"700 8.95 OFFCURVE",
"708.95 0 OFFCURVE",
"720 0 CURVE SMOOTH",
"731.05 0 OFFCURVE",
"740 8.95 OFFCURVE",
"740 20 CURVE SMOOTH",
"740 1240 LINE",
"1320 1240 LINE",
"1320 20 LINE SMOOTH",
"1320 8.95 OFFCURVE",
"1328.95 0 OFFCURVE",
"1340 0 CURVE SMOOTH",
"1351.05 0 OFFCURVE",
"1360 8.95 OFFCURVE",
"1360 20 CURVE SMOOTH",
"1360 1260 LINE SMOOTH",
"1360 1271.05 OFFCURVE",
"1351.05 1280 OFFCURVE",
"1340 1280 CURVE SMOOTH"
);
}
);
width = 1440;
}
);
unicode = 004D;
},
{
glyphname = N;
lastChange = "2014-01-05 01:19:16 +0000";
layers = (
{
layerId = "940E2F63-624A-4C3D-A909-721782B4CF41";
name = Regular;
paths = (
{
closed = 1;
nodes = (
"1328.95 1280 OFFCURVE",
"1320 1271.05 OFFCURVE",
"1320 1260 CURVE SMOOTH",
"1320 40 LINE",
"740 40 LINE",
"740 1260 LINE SMOOTH",
"740 1271.05 OFFCURVE",
"731.05 1280 OFFCURVE",
"720 1280 CURVE SMOOTH",
"100 1280 LINE SMOOTH",
"88.95 1280 OFFCURVE",
"80 1271.05 OFFCURVE",
"80 1260 CURVE SMOOTH",
"80 20 LINE SMOOTH",
"80 8.95 OFFCURVE",
"88.95 0 OFFCURVE",
"100 0 CURVE SMOOTH",
"111.05 0 OFFCURVE",
"120 8.95 OFFCURVE",
"120 20 CURVE SMOOTH",
"120 1240 LINE",
"700 1240 LINE",
"700 20 LINE SMOOTH",
"700 8.95 OFFCURVE",
"708.95 0 OFFCURVE",
"720 0 CURVE SMOOTH",
"1340 0 LINE SMOOTH",
"1351.05 0 OFFCURVE",
"1360 8.95 OFFCURVE",
"1360 20 CURVE SMOOTH",
"1360 1260 LINE SMOOTH",
"1360 1271.05 OFFCURVE",
"1351.05 1280 OFFCURVE",
"1340 1280 CURVE SMOOTH"
);
}
);
width = 1440;
}
);
unicode = 004E;
},
{
glyphname = O;
lastChange = "2014-01-05 01:19:16 +0000";
layers = (
{
layerId = "940E2F63-624A-4C3D-A909-721782B4CF41";
name = Regular;
paths = (
{
closed = 1;
nodes = (
"100 1280 LINE SMOOTH",
"88.95 1280 OFFCURVE",
"80 1271.05 OFFCURVE",
"80 1260 CURVE SMOOTH",
"80 20 LINE SMOOTH",
"80 8.95 OFFCURVE",
"88.95 0 OFFCURVE",
"100 0 CURVE SMOOTH",
"1340 0 LINE SMOOTH",
"1351.05 0 OFFCURVE",
"1360 8.95 OFFCURVE",
"1360 20 CURVE SMOOTH",
"1360 1260 LINE SMOOTH",
"1360 1271.05 OFFCURVE",
"1351.05 1280 OFFCURVE",
"1340 1280 CURVE SMOOTH"
);
},
{
closed = 1;
nodes = (
"1320 40 LINE",
"120 40 LINE",
"120 1240 LINE",
"1320 1240 LINE"
);
}
);
width = 1440;
}
);
unicode = 004F;
},
{
glyphname = P;
lastChange = "2014-01-05 01:19:16 +0000";
layers = (
{
layerId = "940E2F63-624A-4C3D-A909-721782B4CF41";
name = Regular;
paths = (
{
closed = 1;
nodes = (
"100 1280 LINE SMOOTH",
"88.95 1280 OFFCURVE",
"80 1271.05 OFFCURVE",
"80 1260 CURVE SMOOTH",
"80 20 LINE SMOOTH",
"80 8.95 OFFCURVE",
"88.95 0 OFFCURVE",
"100 0 CURVE SMOOTH",
"111.05 0 OFFCURVE",
"120 8.95 OFFCURVE",
"120 20 CURVE SMOOTH",
"120 1240 LINE",
"1320 1240 LINE",
"1320 660 LINE",
"720 660 LINE SMOOTH",
"708.95 660 OFFCURVE",
"700 651.05 OFFCURVE",
"700 640 CURVE SMOOTH",
"700 628.95 OFFCURVE",
"708.95 620 OFFCURVE",
"720 620 CURVE SMOOTH",
"1340 620 LINE SMOOTH",
"1351.05 620 OFFCURVE",
"1360 628.95 OFFCURVE",
"1360 640 CURVE SMOOTH",
"1360 1260 LINE SMOOTH",
"1360 1271.05 OFFCURVE",
"1351.05 1280 OFFCURVE",
"1340 1280 CURVE SMOOTH"
);
}
);
width = 1440;
}
);
unicode = 0050;
},
{
glyphname = Q;
lastChange = "2014-01-05 01:19:16 +0000";
layers = (
{
layerId = "940E2F63-624A-4C3D-A909-721782B4CF41";
name = Regular;
paths = (
{
closed = 1;
nodes = (
"100 1280 LINE SMOOTH",
"88.95 1280 OFFCURVE",
"80 1271.05 OFFCURVE",
"80 1260 CURVE SMOOTH",
"80 20 LINE SMOOTH",
"80 8.95 OFFCURVE",
"88.95 0 OFFCURVE",
"100 0 CURVE SMOOTH",
"1340 0 LINE SMOOTH",
"1351.05 0 OFFCURVE",
"1360 8.95 OFFCURVE",
"1360 20 CURVE SMOOTH",
"1360 1260 LINE SMOOTH",
"1360 1271.05 OFFCURVE",
"1351.05 1280 OFFCURVE",
"1340 1280 CURVE SMOOTH"
);
},
{
closed = 1;
nodes = (
"1320 40 LINE",
"740 40 LINE",
"740 640 LINE SMOOTH",
"740 651.05 OFFCURVE",
"731.05 660 OFFCURVE",
"720 660 CURVE SMOOTH",
"708.95 660 OFFCURVE",
"700 651.05 OFFCURVE",
"700 640 CURVE SMOOTH",
"700 40 LINE",
"120 40 LINE",
"120 1240 LINE",
"1320 1240 LINE"
);
}
);
width = 1440;
}
);
unicode = 0051;
},
{
glyphname = R;
lastChange = "2014-01-05 01:19:16 +0000";
layers = (
{
layerId = "940E2F63-624A-4C3D-A909-721782B4CF41";
name = Regular;
paths = (
{
closed = 1;
nodes = (
"100 1280 LINE SMOOTH",
"88.922 1280 OFFCURVE",
"80 1271.03 OFFCURVE",
"80 1260 CURVE SMOOTH",
"80 20 LINE SMOOTH",
"80 8.95 OFFCURVE",
"88.95 0 OFFCURVE",
"100 0 CURVE SMOOTH",
"111.05 0 OFFCURVE",
"120 8.95 OFFCURVE",
"120 20 CURVE SMOOTH",
"120 1240 LINE",
"1320 1240 LINE",
"1320 660 LINE",
"720 660 LINE SMOOTH",
"708.95 660 OFFCURVE",
"700 651.05 OFFCURVE",
"700 640 CURVE SMOOTH",
"700 20 LINE SMOOTH",
"700 8.95 OFFCURVE",
"708.95 0 OFFCURVE",
"720 0 CURVE SMOOTH",
"1340 0 LINE SMOOTH",
"1351.05 0 OFFCURVE",
"1360 8.95 OFFCURVE",
"1360 20 CURVE SMOOTH",
"1360 31.05 OFFCURVE",
"1351.05 40 OFFCURVE",
"1340 40 CURVE SMOOTH",
"740 40 LINE",
"740 620 LINE",
"1340 620 LINE SMOOTH",
"1351.05 620 OFFCURVE",
"1360 628.95 OFFCURVE",
"1360 640 CURVE SMOOTH",
"1360 1260 LINE SMOOTH",
"1360 1271.05 OFFCURVE",
"1351.05 1280 OFFCURVE",
"1340 1280 CURVE SMOOTH"
);
}
);
width = 1440;
}
);
unicode = 0052;
},
{
glyphname = T;
lastChange = "2014-01-05 01:19:16 +0000";
layers = (
{
layerId = "940E2F63-624A-4C3D-A909-721782B4CF41";
name = Regular;
paths = (
{
closed = 1;
nodes = (
"100 1280 LINE SMOOTH",
"88.95 1280 OFFCURVE",
"80 1271.05 OFFCURVE",
"80 1260 CURVE SMOOTH",
"80 1248.95 OFFCURVE",
"88.95 1240 OFFCURVE",
"100 1240 CURVE SMOOTH",
"700 1240 LINE",
"700 20 LINE SMOOTH",
"700 8.95 OFFCURVE",
"708.95 0 OFFCURVE",
"720 0 CURVE SMOOTH",
"731.05 0 OFFCURVE",
"740 8.95 OFFCURVE",
"740 20 CURVE SMOOTH",
"740 1240 LINE",
"1340 1240 LINE SMOOTH",
"1351.05 1240 OFFCURVE",
"1360 1248.95 OFFCURVE",
"1360 1260 CURVE SMOOTH",
"1360 1271.05 OFFCURVE",
"1351.05 1280 OFFCURVE",
"1340 1280 CURVE SMOOTH"
);
}
);
width = 1440;
}
);
unicode = 0054;
},
{
glyphname = V;
lastChange = "2014-01-05 01:19:16 +0000";
layers = (
{
layerId = "940E2F63-624A-4C3D-A909-721782B4CF41";
name = Regular;
paths = (
{
closed = 1;
nodes = (
"1328.95 1280 OFFCURVE",
"1320 1271.05 OFFCURVE",
"1320 1260 CURVE SMOOTH",
"1320 660 LINE",
"720 660 LINE SMOOTH",
"708.95 660 OFFCURVE",
"700 651.05 OFFCURVE",
"700 640 CURVE SMOOTH",
"700 40 LINE",
"120 40 LINE",
"120 1260 LINE SMOOTH",
"120 1271.05 OFFCURVE",
"111.05 1280 OFFCURVE",
"100 1280 CURVE SMOOTH",
"88.95 1280 OFFCURVE",
"80 1271.05 OFFCURVE",
"80 1260 CURVE SMOOTH",
"80 20 LINE SMOOTH",
"80 8.95 OFFCURVE",
"88.95 0 OFFCURVE",
"100 0 CURVE SMOOTH",
"720 0 LINE SMOOTH",
"731.05 0 OFFCURVE",
"740 8.95 OFFCURVE",
"740 20 CURVE SMOOTH",
"740 620 LINE",
"1340 620 LINE SMOOTH",
"1351.05 620 OFFCURVE",
"1360 628.95 OFFCURVE",
"1360 640 CURVE SMOOTH",
"1360 1260 LINE SMOOTH",
"1360 1271.05 OFFCURVE",
"1351.05 1280 OFFCURVE",
"1340 1280 CURVE SMOOTH"
);
}
);
width = 1440;
}
);
unicode = 0056;
},
{
glyphname = X;
lastChange = "2014-01-05 01:19:16 +0000";
layers = (
{
layerId = "940E2F63-624A-4C3D-A909-721782B4CF41";
name = Regular;
paths = (
{
closed = 1;
nodes = (
"100 1280 LINE SMOOTH",
"88.95 1280 OFFCURVE",
"80 1271.05 OFFCURVE",
"80 1260 CURVE SMOOTH",
"80 640 LINE SMOOTH",
"80 628.95 OFFCURVE",
"88.95 620 OFFCURVE",
"100 620 CURVE SMOOTH",
"111.05 620 OFFCURVE",
"120 628.95 OFFCURVE",
"120 640 CURVE SMOOTH",
"120 1240 LINE",
"700 1240 LINE",
"700 40 LINE",
"100 40 LINE SMOOTH",
"88.95 40 OFFCURVE",
"80 31.05 OFFCURVE",
"80 20 CURVE SMOOTH",
"80 8.95 OFFCURVE",
"88.95 0 OFFCURVE",
"100 0 CURVE SMOOTH",
"1340 0 LINE SMOOTH",
"1351.05 0 OFFCURVE",
"1360 8.95 OFFCURVE",
"1360 20 CURVE SMOOTH",
"1360 640 LINE SMOOTH",
"1360 651.05 OFFCURVE",
"1351.05 660 OFFCURVE",
"1340 660 CURVE SMOOTH",
"1328.95 660 OFFCURVE",
"1320 651.05 OFFCURVE",
"1320 640 CURVE SMOOTH",
"1320 40 LINE",
"740 40 LINE",
"740 1240 LINE",
"1340 1240 LINE SMOOTH",
"1351.05 1240 OFFCURVE",
"1360 1248.95 OFFCURVE",
"1360 1260 CURVE SMOOTH",
"1360 1271.05 OFFCURVE",
"1351.05 1280 OFFCURVE",
"1340 1280 CURVE SMOOTH"
);
}
);
width = 1440;
}
);
unicode = 0058;
},
{
glyphname = Y;
lastChange = "2014-01-05 01:19:16 +0000";
layers = (
{
layerId = "940E2F63-624A-4C3D-A909-721782B4CF41";
name = Regular;
paths = (
{
closed = 1;
nodes = (
"1328.95 1280 OFFCURVE",
"1320 1271.05 OFFCURVE",
"1320 1260 CURVE SMOOTH",
"1320 660 LINE",
"120 660 LINE",
"120 1260 LINE SMOOTH",
"120 1271.05 OFFCURVE",
"111.05 1280 OFFCURVE",
"100 1280 CURVE SMOOTH",
"88.95 1280 OFFCURVE",
"80 1271.05 OFFCURVE",
"80 1260 CURVE SMOOTH",
"80 640 LINE SMOOTH",
"80 628.95 OFFCURVE",
"88.95 620 OFFCURVE",
"100 620 CURVE SMOOTH",
"1320 620 LINE",
"1320 40 LINE",
"100 40 LINE SMOOTH",
"88.95 40 OFFCURVE",
"80 31.05 OFFCURVE",
"80 20 CURVE SMOOTH",
"80 8.95 OFFCURVE",
"88.95 0 OFFCURVE",
"100 0 CURVE SMOOTH",
"1340 0 LINE SMOOTH",
"1351.05 0 OFFCURVE",
"1360 8.95 OFFCURVE",
"1360 20 CURVE SMOOTH",
"1360 1260 LINE SMOOTH",
"1360 1271.05 OFFCURVE",
"1351.05 1280 OFFCURVE",
"1340 1280 CURVE SMOOTH"
);
}
);
width = 1440;
}
);
unicode = 0059;
},
{
glyphname = zero;
lastChange = "2014-01-05 01:19:16 +0000";
layers = (
{
components = (
{
name = O;
transform = "{1, 0, 0, 1, 0, 0}";
}
);
layerId = "940E2F63-624A-4C3D-A909-721782B4CF41";
name = Regular;
paths = (
{
closed = 1;
nodes = (
"708.954 660 OFFCURVE",
"700 651.046 OFFCURVE",
"700 640 CURVE SMOOTH",
"700 628.954 OFFCURVE",
"708.954 620 OFFCURVE",
"720 620 CURVE SMOOTH",
"731.046 620 OFFCURVE",
"740 628.954 OFFCURVE",
"740 640 CURVE SMOOTH",
"740 651.046 OFFCURVE",
"731.046 660 OFFCURVE",
"720 660 CURVE SMOOTH"
);
}
);
width = 1440;
}
);
unicode = 0030;
},
{
glyphname = one;
lastChange = "2014-01-05 01:19:16 +0000";
layers = (
{
layerId = "940E2F63-624A-4C3D-A909-721782B4CF41";
name = Regular;
paths = (
{
closed = 1;
nodes = (
"100 1279.88 LINE SMOOTH",
"88.951 1280 OFFCURVE",
"80 1271.05 OFFCURVE",
"80 1260 CURVE SMOOTH",
"80 1248.95 OFFCURVE",
"88.951 1240 OFFCURVE",
"100 1240 CURVE SMOOTH",
"700 1240 LINE",
"700 40 LINE",
"100 40 LINE SMOOTH",
"88.951 40 OFFCURVE",
"80 31.051 OFFCURVE",
"80 20 CURVE SMOOTH",
"80 8.951 OFFCURVE",
"88.951 0 OFFCURVE",
"100 0 CURVE SMOOTH",
"1340 0 LINE SMOOTH",
"1351.05 0 OFFCURVE",
"1360 8.951 OFFCURVE",
"1360 20 CURVE SMOOTH",
"1360 31.051 OFFCURVE",
"1351.05 40 OFFCURVE",
"1340 40 CURVE SMOOTH",
"740 40 LINE",
"740 1260 LINE SMOOTH",
"740 1271.05 OFFCURVE",
"731.05 1280 OFFCURVE",
"720 1280 CURVE SMOOTH"
);
}
);
width = 1440;
}
);
unicode = 0031;
},
{
glyphname = four;
lastChange = "2014-01-05 01:19:16 +0000";
layers = (
{
layerId = "940E2F63-624A-4C3D-A909-721782B4CF41";
name = Regular;
paths = (
{
closed = 1;
nodes = (
"1328.95 1280 OFFCURVE",
"1320 1271.05 OFFCURVE",
"1320 1260 CURVE SMOOTH",
"1320 660 LINE",
"120 660 LINE",
"120 1260 LINE SMOOTH",
"120 1271.05 OFFCURVE",
"111.05 1280 OFFCURVE",
"100 1280 CURVE SMOOTH",
"88.95 1280 OFFCURVE",
"80 1271.05 OFFCURVE",
"80 1260 CURVE SMOOTH",
"80 640 LINE SMOOTH",
"80 628.95 OFFCURVE",
"88.95 620 OFFCURVE",
"100 620 CURVE SMOOTH",
"1320 620 LINE",
"1320 20 LINE SMOOTH",
"1320 8.95 OFFCURVE",
"1328.95 0 OFFCURVE",
"1340 0 CURVE SMOOTH",
"1351.05 0 OFFCURVE",
"1360 8.95 OFFCURVE",
"1360 20 CURVE SMOOTH",
"1360 1260 LINE SMOOTH",
"1360 1271.05 OFFCURVE",
"1351.05 1280 OFFCURVE",
"1340 1280 CURVE SMOOTH"
);
}
);
width = 1440;
}
);
unicode = 0034;
},
{
glyphname = seven;
lastChange = "2014-01-05 01:19:16 +0000";
layers = (
{
layerId = "940E2F63-624A-4C3D-A909-721782B4CF41";
name = Regular;
paths = (
{
closed = 1;
nodes = (
"100 1280 LINE SMOOTH",
"88.95 1280 OFFCURVE",
"80 1271.05 OFFCURVE",
"80 1260 CURVE SMOOTH",
"80 1248.95 OFFCURVE",
"88.95 1240 OFFCURVE",
"100 1240 CURVE SMOOTH",
"1320 1240 LINE",
"1320 660 LINE",
"720 660 LINE SMOOTH",
"708.95 660 OFFCURVE",
"700 651.05 OFFCURVE",
"700 640 CURVE SMOOTH",
"700 20 LINE SMOOTH",
"700 8.95 OFFCURVE",
"708.95 0 OFFCURVE",
"720 0 CURVE SMOOTH",
"731.05 0 OFFCURVE",
"740 8.95 OFFCURVE",
"740 20 CURVE SMOOTH",
"740 620 LINE",
"1340 620 LINE SMOOTH",
"1351.05 620 OFFCURVE",
"1360 628.95 OFFCURVE",
"1360 640 CURVE SMOOTH",
"1360 1260 LINE SMOOTH",
"1360 1271.05 OFFCURVE",
"1351.05 1280 OFFCURVE",
"1340 1280 CURVE SMOOTH"
);
}
);
width = 1440;
}
);
unicode = 0037;
},
{
glyphname = eight;
lastChange = "2014-01-05 01:19:16 +0000";
layers = (
{
layerId = "940E2F63-624A-4C3D-A909-721782B4CF41";
name = Regular;
paths = (
{
closed = 1;
nodes = (
"100 1280 LINE SMOOTH",
"88.95 1280 OFFCURVE",
"80 1271.05 OFFCURVE",
"80 1260 CURVE SMOOTH",
"80 20 LINE SMOOTH",
"80 8.95 OFFCURVE",
"88.95 0 OFFCURVE",
"100 0 CURVE SMOOTH",
"1340 0 LINE SMOOTH",
"1351.05 0 OFFCURVE",
"1360 8.95 OFFCURVE",
"1360 20 CURVE SMOOTH",
"1360 1260 LINE SMOOTH",
"1360 1271.05 OFFCURVE",
"1351.05 1280 OFFCURVE",
"1340 1280 CURVE SMOOTH"
);
},
{
closed = 1;
nodes = (
"1320 40 LINE",
"120 40 LINE",
"120 620 LINE",
"1320 620 LINE"
);
},
{
closed = 1;
nodes = (
"1320 660 LINE",
"120 660 LINE",
"120 1240 LINE",
"1320 1240 LINE"
);
}
);
width = 1440;
}
);
unicode = 0038;
},
{
glyphname = asterisk;
lastChange = "2014-01-05 01:19:16 +0000";
layers = (
{
components = (
{
name = plus;
transform = "{1, 0, 0, 1, 0, 0}";
}
);
layerId = "940E2F63-624A-4C3D-A909-721782B4CF41";
name = Regular;
paths = (
{
closed = 1;
nodes = (
"1328.95 1280 OFFCURVE",
"1320 1271.05 OFFCURVE",
"1320 1260 CURVE SMOOTH",
"1320 1248.95 OFFCURVE",
"1328.95 1240 OFFCURVE",
"1340 1240 CURVE SMOOTH",
"1351.05 1240 OFFCURVE",
"1360 1248.95 OFFCURVE",
"1360 1260 CURVE SMOOTH",
"1360 1271.05 OFFCURVE",
"1351.05 1280 OFFCURVE",
"1340 1280 CURVE SMOOTH"
);
},
{
closed = 1;
nodes = (
"88.954 40 OFFCURVE",
"80 31.046 OFFCURVE",
"80 20 CURVE SMOOTH",
"80 8.954 OFFCURVE",
"88.954 0 OFFCURVE",
"100 0 CURVE SMOOTH",
"111.046 0 OFFCURVE",
"120 8.954 OFFCURVE",
"120 20 CURVE SMOOTH",
"120 31.046 OFFCURVE",
"111.046 40 OFFCURVE",
"100 40 CURVE SMOOTH"
);
},
{
closed = 1;
nodes = (
"88.954 1280 OFFCURVE",
"80 1271.05 OFFCURVE",
"80 1260 CURVE SMOOTH",
"80 1248.95 OFFCURVE",
"88.954 1240 OFFCURVE",
"100 1240 CURVE SMOOTH",
"111.046 1240 OFFCURVE",
"120 1248.95 OFFCURVE",
"120 1260 CURVE SMOOTH",
"120 1271.05 OFFCURVE",
"111.046 1280 OFFCURVE",
"100 1280 CURVE SMOOTH"
);
},
{
closed = 1;
nodes = (
"1328.95 40 OFFCURVE",
"1320 31.046 OFFCURVE",
"1320 20 CURVE SMOOTH",
"1320 8.954 OFFCURVE",
"1328.95 0 OFFCURVE",
"1340 0 CURVE SMOOTH",
"1351.05 0 OFFCURVE",
"1360 8.954 OFFCURVE",
"1360 20 CURVE SMOOTH",
"1360 31.046 OFFCURVE",
"1351.05 40 OFFCURVE",
"1340 40 CURVE SMOOTH"
);
}
);
width = 1440;
}
);
unicode = 002A;
},
{
glyphname = backslash;
lastChange = "2014-01-05 01:19:16 +0000";
layers = (
{
layerId = "940E2F63-624A-4C3D-A909-721782B4CF41";
name = Regular;
paths = (
{
closed = 1;
nodes = (
"1328.95 1280 OFFCURVE",
"1320 1271.05 OFFCURVE",
"1320 1260 CURVE SMOOTH",
"1320 20 LINE SMOOTH",
"1320 8.95 OFFCURVE",
"1328.95 0 OFFCURVE",
"1340 0 CURVE SMOOTH",
"1351.05 0 OFFCURVE",
"1360 8.95 OFFCURVE",
"1360 20 CURVE SMOOTH",
"1360 1260 LINE SMOOTH",
"1360 1271.05 OFFCURVE",
"1351.05 1280 OFFCURVE",
"1340 1280 CURVE SMOOTH"
);
},
{
closed = 1;
nodes = (
"88.95 1280 OFFCURVE",
"80 1271.05 OFFCURVE",
"80 1260 CURVE SMOOTH",
"80 20 LINE SMOOTH",
"80 8.95 OFFCURVE",
"88.95 0 OFFCURVE",
"100 0 CURVE SMOOTH",
"111.05 0 OFFCURVE",
"120 8.95 OFFCURVE",
"120 20 CURVE SMOOTH",
"120 1260 LINE SMOOTH",
"120 1271.05 OFFCURVE",
"111.05 1280 OFFCURVE",
"100 1280 CURVE SMOOTH"
);
},
{
closed = 1;
nodes = (
"708.95 1280 OFFCURVE",
"700 1271.05 OFFCURVE",
"700 1260 CURVE SMOOTH",
"700 20 LINE SMOOTH",
"700 8.95 OFFCURVE",
"708.95 0 OFFCURVE",
"720 0 CURVE SMOOTH",
"731.05 0 OFFCURVE",
"740 8.95 OFFCURVE",
"740 20 CURVE SMOOTH",
"740 1260 LINE SMOOTH",
"740 1271.05 OFFCURVE",
"731.05 1280 OFFCURVE",
"720 1280 CURVE SMOOTH"
);
}
);
width = 1440;
}
);
unicode = 005C;
},
{
glyphname = bullet;
lastChange = "2014-01-05 01:19:16 +0000";
layers = (
{
layerId = "940E2F63-624A-4C3D-A909-721782B4CF41";
name = Regular;
paths = (
{
closed = 1;
nodes = (
"100 1280 LINE SMOOTH",
"88.95 1280 OFFCURVE",
"80 1271.05 OFFCURVE",
"80 1260 CURVE SMOOTH",
"80 1248.95 OFFCURVE",
"88.95 1240 OFFCURVE",
"100 1240 CURVE SMOOTH",
"1340 1240 LINE SMOOTH",
"1351.05 1240 OFFCURVE",
"1360 1248.95 OFFCURVE",
"1360 1260 CURVE SMOOTH",
"1360 1271.05 OFFCURVE",
"1351.05 1280 OFFCURVE",
"1340 1280 CURVE SMOOTH"
);
},
{
closed = 1;
nodes = (
"100 40 LINE SMOOTH",
"88.95 40 OFFCURVE",
"80 31.05 OFFCURVE",
"80 20 CURVE SMOOTH",
"80 8.95 OFFCURVE",
"88.95 0 OFFCURVE",
"100 0 CURVE SMOOTH",
"1340 0 LINE SMOOTH",
"1351.05 0 OFFCURVE",
"1360 8.95 OFFCURVE",
"1360 20 CURVE SMOOTH",
"1360 31.05 OFFCURVE",
"1351.05 40 OFFCURVE",
"1340 40 CURVE SMOOTH"
);
},
{
closed = 1;
nodes = (
"100 660 LINE SMOOTH",
"88.95 660 OFFCURVE",
"80 651.05 OFFCURVE",
"80 640 CURVE SMOOTH",
"80 628.95 OFFCURVE",
"88.95 620 OFFCURVE",
"100 620 CURVE SMOOTH",
"1340 620 LINE SMOOTH",
"1351.05 620 OFFCURVE",
"1360 628.95 OFFCURVE",
"1360 640 CURVE SMOOTH",
"1360 651.05 OFFCURVE",
"1351.05 660 OFFCURVE",
"1340 660 CURVE SMOOTH"
);
}
);
width = 1440;
}
);
unicode = 2022;
},
{
glyphname = comma;
lastChange = "2014-01-05 01:19:16 +0000";
layers = (
{
layerId = "940E2F63-624A-4C3D-A909-721782B4CF41";
name = Regular;
paths = (
{
closed = 1;
nodes = (
"100 1280 LINE SMOOTH",
"88.95 1280 OFFCURVE",
"80 1271.05 OFFCURVE",
"80 1260 CURVE SMOOTH",
"80 20 LINE SMOOTH",
"80 8.95 OFFCURVE",
"88.95 0 OFFCURVE",
"100 0 CURVE SMOOTH",
"1340 0 LINE SMOOTH",
"1351.05 0 OFFCURVE",
"1360 8.95 OFFCURVE",
"1360 20 CURVE SMOOTH",
"1360 1260 LINE SMOOTH",
"1360 1271.05 OFFCURVE",
"1351.05 1280 OFFCURVE",
"1340 1280 CURVE SMOOTH"
);
}
);
width = 1440;
}
);
unicode = 002C;
},
{
glyphname = ellipsis;
lastChange = "2014-01-05 01:19:16 +0000";
layers = (
{
layerId = "940E2F63-624A-4C3D-A909-721782B4CF41";
name = Regular;
paths = (
{
closed = 1;
nodes = (
"100 1280 LINE SMOOTH",
"88.95 1280 OFFCURVE",
"80 1271.05 OFFCURVE",
"80 1260 CURVE SMOOTH",
"80 1248.95 OFFCURVE",
"88.95 1240 OFFCURVE",
"100 1240 CURVE SMOOTH",
"1340 1240 LINE SMOOTH",
"1351.05 1240 OFFCURVE",
"1360 1248.95 OFFCURVE",
"1360 1260 CURVE SMOOTH",
"1360 1271.05 OFFCURVE",
"1351.05 1280 OFFCURVE",
"1340 1280 CURVE SMOOTH"
);
},
{
closed = 1;
nodes = (
"88.95 40 OFFCURVE",
"80 31.05 OFFCURVE",
"80 20 CURVE SMOOTH",
"80 8.95 OFFCURVE",
"88.95 0 OFFCURVE",
"100 0 CURVE SMOOTH",
"111.05 0 OFFCURVE",
"120 8.95 OFFCURVE",
"120 20 CURVE SMOOTH",
"120 31.05 OFFCURVE",
"111.05 40 OFFCURVE",
"100 40 CURVE SMOOTH"
);
},
{
closed = 1;
nodes = (
"100 660 LINE SMOOTH",
"88.95 660 OFFCURVE",
"80 651.05 OFFCURVE",
"80 640 CURVE SMOOTH",
"80 628.95 OFFCURVE",
"88.95 620 OFFCURVE",
"100 620 CURVE SMOOTH",
"1340 620 LINE SMOOTH",
"1351.05 620 OFFCURVE",
"1360 628.95 OFFCURVE",
"1360 640 CURVE SMOOTH",
"1360 651.05 OFFCURVE",
"1351.05 660 OFFCURVE",
"1340 660 CURVE SMOOTH"
);
},
{
closed = 1;
nodes = (
"1328.95 40 OFFCURVE",
"1320 31.05 OFFCURVE",
"1320 20 CURVE SMOOTH",
"1320 8.95 OFFCURVE",
"1328.95 0 OFFCURVE",
"1340 0 CURVE SMOOTH",
"1351.05 0 OFFCURVE",
"1360 8.95 OFFCURVE",
"1360 20 CURVE SMOOTH",
"1360 31.05 OFFCURVE",
"1351.05 40 OFFCURVE",
"1340 40 CURVE SMOOTH"
);
}
);
width = 1440;
}
);
unicode = 2026;
},
{
glyphname = exclam;
lastChange = "2014-01-05 01:19:16 +0000";
layers = (
{
layerId = "940E2F63-624A-4C3D-A909-721782B4CF41";
name = Regular;
paths = (
{
closed = 1;
nodes = (
"1328.95 1280 OFFCURVE",
"1320 1271.05 OFFCURVE",
"1320 1260 CURVE SMOOTH",
"1320 640 LINE SMOOTH",
"1320 628.95 OFFCURVE",
"1328.95 620 OFFCURVE",
"1340 620 CURVE SMOOTH",
"1351.05 620 OFFCURVE",
"1360 628.95 OFFCURVE",
"1360 640 CURVE SMOOTH",
"1360 1260 LINE SMOOTH",
"1360 1271.05 OFFCURVE",
"1351.05 1280 OFFCURVE",
"1340 1280 CURVE SMOOTH"
);
},
{
closed = 1;
nodes = (
"88.95 40 OFFCURVE",
"80 31.05 OFFCURVE",
"80 20 CURVE SMOOTH",
"80 8.95 OFFCURVE",
"88.95 0 OFFCURVE",
"100 0 CURVE SMOOTH",
"111.05 0 OFFCURVE",
"120 8.95 OFFCURVE",
"120 20 CURVE SMOOTH",
"120 31.05 OFFCURVE",
"111.05 40 OFFCURVE",
"100 40 CURVE SMOOTH"
);
},
{
closed = 1;
nodes = (
"708.95 40 OFFCURVE",
"700 31.05 OFFCURVE",
"700 20 CURVE SMOOTH",
"700 8.95 OFFCURVE",
"708.95 0 OFFCURVE",
"720 0 CURVE SMOOTH",
"731.05 0 OFFCURVE",
"740 8.95 OFFCURVE",
"740 20 CURVE SMOOTH",
"740 31.05 OFFCURVE",
"731.05 40 OFFCURVE",
"720 40 CURVE SMOOTH"
);
},
{
closed = 1;
nodes = (
"88.95 1280 OFFCURVE",
"80 1271.05 OFFCURVE",
"80 1260 CURVE SMOOTH",
"80 640 LINE SMOOTH",
"80 628.95 OFFCURVE",
"88.95 620 OFFCURVE",
"100 620 CURVE SMOOTH",
"111.05 620 OFFCURVE",
"120 628.95 OFFCURVE",
"120 640 CURVE SMOOTH",
"120 1260 LINE SMOOTH",
"120 1271.05 OFFCURVE",
"111.05 1280 OFFCURVE",
"100 1280 CURVE SMOOTH"
);
},
{
closed = 1;
nodes = (
"1328.95 40 OFFCURVE",
"1320 31.05 OFFCURVE",
"1320 20 CURVE SMOOTH",
"1320 8.95 OFFCURVE",
"1328.95 0 OFFCURVE",
"1340 0 CURVE SMOOTH",
"1351.05 0 OFFCURVE",
"1360 8.95 OFFCURVE",
"1360 20 CURVE SMOOTH",
"1360 31.05 OFFCURVE",
"1351.05 40 OFFCURVE",
"1340 40 CURVE SMOOTH"
);
},
{
closed = 1;
nodes = (
"708.95 1280 OFFCURVE",
"700 1271.05 OFFCURVE",
"700 1260 CURVE SMOOTH",
"700 640 LINE SMOOTH",
"700 628.95 OFFCURVE",
"708.95 620 OFFCURVE",
"720 620 CURVE SMOOTH",
"731.05 620 OFFCURVE",
"740 628.95 OFFCURVE",
"740 640 CURVE SMOOTH",
"740 1260 LINE SMOOTH",
"740 1271.05 OFFCURVE",
"731.05 1280 OFFCURVE",
"720 1280 CURVE SMOOTH"
);
}
);
width = 1440;
}
);
unicode = 0021;
},
{
glyphname = numbersign;
lastChange = "2014-01-05 01:19:16 +0000";
layers = (
{
layerId = "940E2F63-624A-4C3D-A909-721782B4CF41";
name = Regular;
paths = (
{
closed = 1;
nodes = (
"100 1280 LINE SMOOTH",
"88.95 1280 OFFCURVE",
"80 1271.05 OFFCURVE",
"80 1260 CURVE SMOOTH",
"80 20 LINE SMOOTH",
"80 8.95 OFFCURVE",
"88.95 0 OFFCURVE",
"100 0 CURVE SMOOTH",
"1340 0 LINE SMOOTH",
"1351.05 0 OFFCURVE",
"1360 8.95 OFFCURVE",
"1360 20 CURVE SMOOTH",
"1360 1260 LINE SMOOTH",
"1360 1271.05 OFFCURVE",
"1351.05 1280 OFFCURVE",
"1340 1280 CURVE SMOOTH"
);
},
{
closed = 1;
nodes = (
"700 40 LINE",
"120 40 LINE",
"120 620 LINE",
"700 620 LINE"
);
},
{
closed = 1;
nodes = (
"700 660 LINE",
"120 660 LINE",
"120 1240 LINE",
"700 1240 LINE"
);
},
{
closed = 1;
nodes = (
"1320 40 LINE",
"740 40 LINE",
"740 620 LINE",
"1320 620 LINE"
);
},
{
closed = 1;
nodes = (
"1320 660 LINE",
"740 660 LINE",
"740 1240 LINE",
"1320 1240 LINE"
);
}
);
width = 1440;
}
);
unicode = 0023;
},
{
glyphname = question;
lastChange = "2014-01-05 01:19:16 +0000";
layers = (
{
layerId = "940E2F63-624A-4C3D-A909-721782B4CF41";
name = Regular;
paths = (
{
closed = 1;
nodes = (
"100 1280 LINE SMOOTH",
"88.95 1280 OFFCURVE",
"80 1271.05 OFFCURVE",
"80 1260 CURVE SMOOTH",
"80 1248.95 OFFCURVE",
"88.95 1240 OFFCURVE",
"100 1240 CURVE SMOOTH",
"1320 1240 LINE",
"1320 660 LINE",
"720 660 LINE SMOOTH",
"708.95 660 OFFCURVE",
"700 651.05 OFFCURVE",
"700 640 CURVE SMOOTH",
"700 628.95 OFFCURVE",
"708.95 620 OFFCURVE",
"720 620 CURVE SMOOTH",
"1340 620 LINE SMOOTH",
"1351.05 620 OFFCURVE",
"1360 628.95 OFFCURVE",
"1360 640 CURVE SMOOTH",
"1360 1260 LINE SMOOTH",
"1360 1271.05 OFFCURVE",
"1351.05 1280 OFFCURVE",
"1340 1280 CURVE SMOOTH"
);
},
{
closed = 1;
nodes = (
"708.95 40 OFFCURVE",
"700 31.05 OFFCURVE",
"700 20 CURVE SMOOTH",
"700 8.95 OFFCURVE",
"708.95 0 OFFCURVE",
"720 0 CURVE SMOOTH",
"731.05 0 OFFCURVE",
"740 8.95 OFFCURVE",
"740 20 CURVE SMOOTH",
"740 31.05 OFFCURVE",
"731.05 40 OFFCURVE",
"720 40 CURVE SMOOTH"
);
}
);
width = 1440;
}
);
unicode = 003F;
},
{
glyphname = braceleft;
lastChange = "2014-01-05 01:19:16 +0000";
layers = (
{
layerId = "940E2F63-624A-4C3D-A909-721782B4CF41";
name = Regular;
paths = (
{
closed = 1;
nodes = (
"720 1280 LINE SMOOTH",
"708.95 1280 OFFCURVE",
"700 1271.05 OFFCURVE",
"700 1260 CURVE SMOOTH",
"700 660 LINE",
"100 660 LINE SMOOTH",
"88.95 660 OFFCURVE",
"80 651.05 OFFCURVE",
"80 640 CURVE SMOOTH",
"80 628.95 OFFCURVE",
"88.95 620 OFFCURVE",
"100 620 CURVE SMOOTH",
"700 620 LINE",
"700 20 LINE SMOOTH",
"700 8.95 OFFCURVE",
"708.95 0 OFFCURVE",
"720 0 CURVE SMOOTH",
"1340 0 LINE SMOOTH",
"1351.05 0 OFFCURVE",
"1360 8.95 OFFCURVE",
"1360 20 CURVE SMOOTH",
"1360 31.05 OFFCURVE",
"1351.05 40 OFFCURVE",
"1340 40 CURVE SMOOTH",
"740 40 LINE",
"740 1240 LINE",
"1340 1240 LINE SMOOTH",
"1351.05 1240 OFFCURVE",
"1360 1248.95 OFFCURVE",
"1360 1260 CURVE SMOOTH",
"1360 1271.05 OFFCURVE",
"1351.05 1280 OFFCURVE",
"1340 1280 CURVE SMOOTH"
);
}
);
width = 1440;
}
);
unicode = 007B;
},
{
color = 0;
glyphname = dollar;
lastChange = "2014-01-05 01:19:16 +0000";
layers = (
{
components = (
{
name = s;
transform = "{1, 0, 0, 1, 0, 0}";
}
);
layerId = "940E2F63-624A-4C3D-A909-721782B4CF41";
name = Regular;
paths = (
{
closed = 1;
nodes = (
"690 1262 LINE",
"690 2 LINE",
"730 2 LINE",
"730 1262 LINE"
);
}
);
width = 1440;
}
);
unicode = 0024;
},
{
color = 0;
glyphname = euro;
lastChange = "2014-01-05 01:19:16 +0000";
layers = (
{
components = (
{
name = braceleft;
transform = "{1, 0, 0, 1, 0, 0}";
}
);
layerId = "940E2F63-624A-4C3D-A909-721782B4CF41";
name = Regular;
paths = (
{
closed = 1;
nodes = (
"540 660 LINE",
"540 620 LINE",
"1340 620 LINE SMOOTH",
"1351.05 620 OFFCURVE",
"1360 628.95 OFFCURVE",
"1360 640 CURVE SMOOTH",
"1360 651.05 OFFCURVE",
"1351.05 660 OFFCURVE",
"1340 660 CURVE SMOOTH"
);
}
);
width = 1440;
}
);
unicode = 20AC;
},
{
glyphname = divide;
lastChange = "2014-01-05 01:19:16 +0000";
layers = (
{
layerId = "940E2F63-624A-4C3D-A909-721782B4CF41";
name = Regular;
paths = (
{
closed = 1;
nodes = (
"100 660 LINE SMOOTH",
"88.95 660 OFFCURVE",
"80 651.05 OFFCURVE",
"80 640 CURVE SMOOTH",
"80 628.95 OFFCURVE",
"88.95 620 OFFCURVE",
"100 620 CURVE SMOOTH",
"1340 620 LINE SMOOTH",
"1351.05 620 OFFCURVE",
"1360 628.95 OFFCURVE",
"1360 640 CURVE SMOOTH",
"1360 651.05 OFFCURVE",
"1351.05 660 OFFCURVE",
"1340 660 CURVE SMOOTH"
);
},
{
closed = 1;
nodes = (
"708.95 40 OFFCURVE",
"700 31.05 OFFCURVE",
"700 20 CURVE SMOOTH",
"700 8.95 OFFCURVE",
"708.95 0 OFFCURVE",
"720 0 CURVE SMOOTH",
"731.05 0 OFFCURVE",
"740 8.95 OFFCURVE",
"740 20 CURVE SMOOTH",
"740 31.05 OFFCURVE",
"731.05 40 OFFCURVE",
"720 40 CURVE SMOOTH"
);
},
{
closed = 1;
nodes = (
"708.95 1280 OFFCURVE",
"700 1271.05 OFFCURVE",
"700 1260 CURVE SMOOTH",
"700 1248.95 OFFCURVE",
"708.95 1240 OFFCURVE",
"720 1240 CURVE SMOOTH",
"731.05 1240 OFFCURVE",
"740 1248.95 OFFCURVE",
"740 1260 CURVE SMOOTH",
"740 1271.05 OFFCURVE",
"731.05 1280 OFFCURVE",
"720 1280 CURVE SMOOTH"
);
}
);
width = 1440;
}
);
unicode = 00F7;
},
{
color = 0;
glyphname = percent;
lastChange = "2014-01-05 01:19:16 +0000";
layers = (
{
layerId = "940E2F63-624A-4C3D-A909-721782B4CF41";
name = Regular;
paths = (
{
closed = 1;
nodes = (
"1328.95 1280 OFFCURVE",
"1320 1271.05 OFFCURVE",
"1320 1260 CURVE SMOOTH",
"1320 660 LINE",
"100 660 LINE SMOOTH",
"88.95 660 OFFCURVE",
"80 651.05 OFFCURVE",
"80 640 CURVE SMOOTH",
"80 20 LINE SMOOTH",
"80 8.95 OFFCURVE",
"88.95 0 OFFCURVE",
"100 0 CURVE SMOOTH",
"111.05 0 OFFCURVE",
"120 8.95 OFFCURVE",
"120 20 CURVE SMOOTH",
"120 620 LINE",
"1340 620 LINE SMOOTH",
"1351.05 620 OFFCURVE",
"1360 628.95 OFFCURVE",
"1360 640 CURVE SMOOTH",
"1360 1260 LINE SMOOTH",
"1360 1271.05 OFFCURVE",
"1351.05 1280 OFFCURVE",
"1340 1280 CURVE SMOOTH"
);
},
{
closed = 1;
nodes = (
"720 40 LINE SMOOTH",
"708.95 40 OFFCURVE",
"700 31.05 OFFCURVE",
"700 20 CURVE SMOOTH",
"700 8.95 OFFCURVE",
"708.95 0 OFFCURVE",
"720 0 CURVE SMOOTH",
"1340 0 LINE SMOOTH",
"1351.05 0 OFFCURVE",
"1360 8.95 OFFCURVE",
"1360 20 CURVE SMOOTH",
"1360 31.05 OFFCURVE",
"1351.05 40 OFFCURVE",
"1340 40 CURVE SMOOTH"
);
},
{
closed = 1;
nodes = (
"100 1280 LINE SMOOTH",
"88.95 1280 OFFCURVE",
"80 1271.05 OFFCURVE",
"80 1260 CURVE SMOOTH",
"80 1248.95 OFFCURVE",
"88.95 1240 OFFCURVE",
"100 1240 CURVE SMOOTH",
"720 1240 LINE SMOOTH",
"731.05 1240 OFFCURVE",
"740 1248.95 OFFCURVE",
"740 1260 CURVE SMOOTH",
"740 1271.05 OFFCURVE",
"731.05 1280 OFFCURVE",
"720 1280 CURVE SMOOTH"
);
}
);
width = 1440;
}
);
unicode = 0025;
},
{
glyphname = plus;
lastChange = "2014-01-05 01:19:16 +0000";
layers = (
{
layerId = "940E2F63-624A-4C3D-A909-721782B4CF41";
name = Regular;
paths = (
{
closed = 1;
nodes = (
"708.95 1280 OFFCURVE",
"700 1271.05 OFFCURVE",
"700 1260 CURVE SMOOTH",
"700 660 LINE",
"100 660 LINE SMOOTH",
"88.95 660 OFFCURVE",
"80 651.05 OFFCURVE",
"80 640 CURVE SMOOTH",
"80 628.95 OFFCURVE",
"88.95 620 OFFCURVE",
"100 620 CURVE SMOOTH",
"700 620 LINE",
"700 20 LINE SMOOTH",
"700 8.95 OFFCURVE",
"708.95 0 OFFCURVE",
"720 0 CURVE SMOOTH",
"731.05 0 OFFCURVE",
"740 8.95 OFFCURVE",
"740 20 CURVE SMOOTH",
"740 620 LINE",
"1340 620 LINE SMOOTH",
"1351.05 620 OFFCURVE",
"1360 628.95 OFFCURVE",
"1360 640 CURVE SMOOTH",
"1360 651.05 OFFCURVE",
"1351.05 660 OFFCURVE",
"1340 660 CURVE SMOOTH",
"740 660 LINE",
"740 1260 LINE SMOOTH",
"740 1271.05 OFFCURVE",
"731.05 1280 OFFCURVE",
"720 1280 CURVE SMOOTH"
);
}
);
width = 1440;
}
);
unicode = 002B;
},
{
glyphname = ampersand;
lastChange = "2014-01-05 01:19:16 +0000";
layers = (
{
layerId = "940E2F63-624A-4C3D-A909-721782B4CF41";
name = Regular;
paths = (
{
closed = 1;
nodes = (
"720 1280 LINE SMOOTH",
"708.95 1280 OFFCURVE",
"700 1271.05 OFFCURVE",
"700 1260 CURVE SMOOTH",
"700 660 LINE",
"100 660 LINE SMOOTH",
"88.95 660 OFFCURVE",
"80 651.05 OFFCURVE",
"80 640 CURVE SMOOTH",
"80 20 LINE SMOOTH",
"80 8.95 OFFCURVE",
"88.95 0 OFFCURVE",
"100 0 CURVE SMOOTH",
"1340 0 LINE SMOOTH",
"1351.05 0 OFFCURVE",
"1360 8.95 OFFCURVE",
"1360 20 CURVE SMOOTH",
"1360 31.05 OFFCURVE",
"1351.05 40 OFFCURVE",
"1340 40 CURVE SMOOTH",
"120 40 LINE",
"120 620 LINE",
"1340 620 LINE SMOOTH",
"1351.05 620 OFFCURVE",
"1360 628.95 OFFCURVE",
"1360 640 CURVE SMOOTH",
"1360 1260 LINE SMOOTH",
"1360 1271.05 OFFCURVE",
"1351.05 1280 OFFCURVE",
"1340 1280 CURVE SMOOTH"
);
},
{
closed = 1;
nodes = (
"1320 660 LINE",
"740 660 LINE",
"740 1240 LINE",
"1320 1240 LINE"
);
}
);
width = 1440;
}
);
unicode = 0026;
},
{
glyphname = degree;
lastChange = "2014-01-05 01:19:16 +0000";
layers = (
{
layerId = "940E2F63-624A-4C3D-A909-721782B4CF41";
name = Regular;
paths = (
{
closed = 1;
nodes = (
"1328.95 660 OFFCURVE",
"1320 651.05 OFFCURVE",
"1320 640 CURVE SMOOTH",
"1320 40 LINE",
"720 40 LINE SMOOTH",
"708.95 40 OFFCURVE",
"700 31.05 OFFCURVE",
"700 20 CURVE SMOOTH",
"700 8.95 OFFCURVE",
"708.95 0 OFFCURVE",
"720 0 CURVE SMOOTH",
"1340 0 LINE SMOOTH",
"1351.05 0 OFFCURVE",
"1360 8.95 OFFCURVE",
"1360 20 CURVE SMOOTH",
"1360 640 LINE SMOOTH",
"1360 651.05 OFFCURVE",
"1351.05 660 OFFCURVE",
"1340 660 CURVE SMOOTH"
);
},
{
closed = 1;
nodes = (
"100 1280 LINE SMOOTH",
"88.95 1280 OFFCURVE",
"80 1271.05 OFFCURVE",
"80 1260 CURVE SMOOTH",
"80 640 LINE SMOOTH",
"80 628.95 OFFCURVE",
"88.95 620 OFFCURVE",
"100 620 CURVE SMOOTH",
"720 620 LINE SMOOTH",
"731.05 620 OFFCURVE",
"740 628.95 OFFCURVE",
"740 640 CURVE SMOOTH",
"740 1260 LINE SMOOTH",
"740 1271.05 OFFCURVE",
"731.05 1280 OFFCURVE",
"720 1280 CURVE SMOOTH"
);
},
{
closed = 1;
nodes = (
"700 660 LINE",
"120 660 LINE",
"120 1240 LINE",
"700 1240 LINE"
);
}
);
width = 1440;
}
);
unicode = 00B0;
},
